<svg width="51" height="36" viewBox="0 0 51 36" fill="none" xmlns="http://www.w3.org/2000/svg">
<path d="M14.0199 10.686C9.34513 11.7993 6.4939 15.8121 7.31871 18.552C8.14518 21.2926 11.2656 18.171 15.9403 17.057C20.6134 15.9422 25.0696 17.2589 24.2448 14.5183C23.4191 11.7778 18.6947 9.57119 14.0199 10.686ZM10.4018 9.40875C11.8105 8.9545 11.9902 6.23404 11.2399 4.39979C10.4896 2.56697 8.73895 1.45075 7.33031 1.90644C5.92249 2.36285 5.38918 4.21866 6.13946 6.05147C6.88974 7.885 8.99235 9.86516 10.4018 9.40875ZM16.149 7.99353C17.6421 7.8771 18.6061 5.29175 18.4148 3.34682C18.2243 1.40332 16.8587 -0.0765897 15.3656 0.0376915C13.8725 0.154848 12.8158 1.8245 13.0071 3.768C13.1992 5.7115 14.6542 8.10997 16.149 7.99353ZM22.7492 2.30535C21.2511 2.30535 20.0371 3.8866 20.0371 5.83729C20.0371 7.78941 21.2519 10.2899 22.7492 10.2899C24.2481 10.2899 25.4621 7.78941 25.4621 5.83729C25.4629 3.88588 24.2481 2.30535 22.7492 2.30535ZM1.74792 7.31C0.449417 7.97557 0.285448 9.886 1.38437 11.5765C2.48081 13.2656 4.93951 14.8914 6.23718 14.2251C7.53568 13.5588 7.18207 10.852 6.08481 9.16294C4.98754 7.47244 3.04476 6.64372 1.74792 7.31ZM36.9822 27.0052C32.3074 25.8904 27.5813 28.0977 26.7565 30.8376C25.93 33.5782 30.3878 32.2614 35.0617 33.3762C39.7365 34.4903 42.856 37.6118 43.6809 34.8712C44.5073 32.1313 41.6553 28.1193 36.9822 27.0052ZM40.6002 25.7301C42.0072 26.1844 44.1115 24.2042 44.8618 22.3707C45.612 20.5372 45.0787 18.6813 43.6709 18.2257C42.2623 17.7693 40.5133 18.8862 39.763 20.7197C39.0127 22.5533 39.1916 25.2737 40.6002 25.7301ZM34.8539 24.312C36.347 24.4285 37.8028 22.0307 37.9933 20.0872C38.1838 18.1437 37.1296 16.4733 35.6364 16.3569C34.1433 16.2419 32.7786 17.7225 32.5856 19.6668C32.3952 21.611 33.3608 24.1956 34.8539 24.312ZM28.2512 26.6092C29.751 26.6092 30.965 24.1086 30.965 22.1565C30.965 20.2058 29.7501 18.6246 28.2512 18.6246C26.7523 18.6246 25.5375 20.2058 25.5375 22.1579C25.5375 24.1086 26.754 26.6092 28.2512 26.6092ZM49.2533 23.6292C47.9548 22.9629 46.0137 23.7917 44.9172 25.4814C43.8216 27.1712 43.4672 29.878 44.7632 30.5443C46.0617 31.2106 48.5204 29.5848 49.6169 27.8957C50.7133 26.2059 50.5501 24.2955 49.2533 23.6292Z" fill="white"/>
</svg>
